<svg width="16" height="16" viewBox="0 0 16 16" xmlns="http://www.w3.org/2000/svg"><title>small icons/lesson icon</title><g fill="none" fill-rule="evenodd"><path d="M7.44 4.3c-.002-.023-.002-.047 0-.07-.3-.56-1.148-1.15-2.707-1.23-.995.087-1.955.43-2.8 1v9c1.046-.546 2.197-.82 3.36-.8.742.045 1.47.235 2.147.56V4.3zM8.467 4.25v8.46c.678-.325 1.405-.515 2.146-.56h.29c1.073.01 2.127.3 3.07.85V4c-.86-.516-1.816-.82-2.8-.89-1.02-.106-2.027.318-2.706 1.14z"/><path d="M14.683 3.27c-1.067-.682-2.27-1.083-3.51-1.17-1.172-.068-2.32.367-3.192 1.21C7.097 2.442 5.934 1.973 4.734 2c-1.258.1-2.47.54-3.528 1.28-.13.094-.207.252-.205.42v10.2c.002.193.107.368.27.45.164.08.357.054.495-.07 1.036-.76 2.274-1.14 3.528-1.08.786.06 1.55.3 2.24.71.043.11.123.2.224.25.053.01.107.01.16 0h.13c.174.023.34-.09.392-.27.682-.406 1.44-.648 2.22-.71 1.248-.124 2.493.258 3.49 1.07.137.136.336.17.506.09.17-.08.28-.26.28-.46V3.7c-.006-.182-.103-.346-.253-.43zM1.933 13V4c.845-.57 1.805-.913 2.8-1 1.578.09 2.427.67 2.744 1.23V12.76c-.678-.325-1.405-.515-2.146-.56-1.175-.027-2.34.248-3.397.8zm12.04 0c-.948-.525-2.003-.793-3.07-.78h-.29c-.74.045-1.468.235-2.146.56V4.3c.668-.845 1.676-1.292 2.706-1.2.984.07 1.94.374 2.8.89V13z" fill="#AEB993"/></g></svg>