<svg width="16" height="16" viewBox="0 0 16 16" xmlns="http://www.w3.org/2000/svg"><title>small icons/channel icon</title>
<path d="M2.68 14.563c-.098-.002-.193-.032-.27-.088-.17-.117-.234-.324-.16-.508l1.345-3.342C2.13 10.525.995
 9.378 1 8V4.5c0-.712.307-1.393.853-1.888.545-.495 1.282-.76 2.04-.737h8.214c.802.005
  1.566.322 2.11.875.474.47.723 1.103.69 1.75V8c-.013.708-.324 1.382-.867
   1.874-.543.493-1.272.763-2.027.75H8.075L2.97 14.467c-.083.062-.185.096-.29.097zM3.893
    2.75c-.51-.024-1.01.15-1.38.48-.37.33-.58.79-.58 1.27V8c.013.476.226.928.594 1.256.367.328.86.506
    1.366.494h.374c.16-.01.313.057.407.177.095.12.117.278.06.418l-1.01 2.432
     3.893-2.93c.082-.063.184-.096.29-.097h4.106c.508.012 1-.166
     1.367-.494.368-.328.58-.78.593-1.256V4.5c.04-.434-.12-.863-.438-1.18-.372-.368-.89-.574-1.428-.57H3.893z"
      fill="#ECB5AB" fill-rule="evenodd"/></svg>