<svg width="41" height="41" viewBox="0 0 41 41" xmlns="http://www.w3.org/2000/svg"><title>editing icons/delete</title><path d="M29.65 27.45l-2.204 2.2c-.402.405-1.062.405-1.466 0l-5.503-5.5-5.503 5.5c-.404.404-1.065.404-1.467-.003l-2.204-2.198c-.404-.406-.404-1.062 0-1.47l5.503-5.503-5.502-5.502c-.403-.406-.403-1.066 0-1.468l2.203-2.2c.403-.41 1.064-.41 1.467 0l5.502 5.502 5.504-5.504c.405-.408 1.065-.408 1.466 0l2.203 2.198c.404.406.404 1.066 0 1.47l-5.503 5.503 5.502 5.503c.403.408.403 1.064 0 1.47z" fill="#DF6065" fill-rule="evenodd"/></svg>