<svg width="11" height="11" viewBox="0 0 11 11" xmlns="http://www.w3.org/2000/svg"><title>edit</title><g fill="#FFF" fill-rule="evenodd"><path d="M3.937 8.83L.74 9.768l.492.493.938-3.197-.762-.223-.938 3.197-.205.698.698-.205 3.198-.938"/><path d="M1.18 8.62L.83 9.814c-.03.1-.003.21.07.285.056.054.13.084.205.084.027 0 .055-.005.08-.012l1.195-.35-1.2-1.202zM2.516 7.672l.65.146.094.598L7.74 3.94l-.745-.743M8.23 4.423l-4.513 4.51.58.58 4.53-4.492M6.553 2.746l-.534-.534-4.532 4.49.55.553M9.234 4.575l-2.81-2.81.644-.602 2.81 2.81M10.21 3.483L7.518.79 7.93.373C8.3.005 8.9.008 9.27.38l1.346 1.346c.372.372.375.97.008 1.34l-.414.417z"/></g></svg>