<svg width="13" height="16" viewBox="0 0 13 16" xmlns="http://www.w3.org/2000/svg"><title>Enter</title>
<path d="M3.357 0c-.927 0-1.68.827-1.68 1.846v3.077h1.12V1.846c0-.34.25-.615.56-.615h7.832c.307
0 .558.276.558.616v12.308c0 .34-.25.615-.56.615H3.36c-.31 0-.56-.276-.56-.616v-3.077h-1.12v3.077c0
 1.02.752 1.846 1.68 1.846h7.83c.927 0 1.68-.827 1.68-1.846V1.846c0-1.02-.753-1.846-1.68-1.846H3.36zm.84
 3.98c-.14.046-.28.203-.28.616v1.558H.558c-.31 0-.56.276-.56.615v2.46c0 .34.25.616.56.616h3.356v1.54c0
  .787.56.614.56.614L8.67 8 4.477 4s-.14-.065-.28-.02z" fill="#ECB5AB" fill-rule="evenodd"/></svg>