<svg width="16" height="16" viewBox="0 0 16 16" xmlns="http://www.w3.org/2000/svg"><title>small icons/group channel</title><path d="M4.267 3c-1.76 0-3.2 1.41-3.2 3.137 0 1.038.52 1.96 1.316 2.533C.977 9.355 0 10.772 0 12.412h1.067c0-1.74 1.426-3.137 3.2-3.137 1.773 0 3.2 1.398 3.2 3.137h1.066c0-1.74 1.427-3.137 3.2-3.137 1.774 0 3.2 1.398 3.2 3.137H16c0-1.64-.977-3.057-2.383-3.742.796-.572 1.316-1.495 1.316-2.533 0-1.726-1.44-3.137-3.2-3.137-1.76 0-3.2 1.41-3.2 3.137 0 1.038.52 1.96 1.317 2.533-.778.38-1.43.973-1.85 1.716-.42-.743-1.072-1.337-1.85-1.716.797-.572 1.317-1.495 1.317-2.533C7.467 4.41 6.027 3 4.267 3zm0 1.046c1.184 0 2.133.93 2.133 2.09C6.4 7.3 5.45 8.23 4.267 8.23c-1.185 0-2.134-.93-2.134-2.093 0-1.16.95-2.09 2.134-2.09zm7.466 0c1.185 0 2.134.93 2.134 2.09 0 1.163-.95 2.093-2.134 2.093S9.6 7.3 9.6 6.136c0-1.16.95-2.09 2.133-2.09z" fill="white" fill-rule="evenodd"/></svg>
