<svg width="16" height="16" viewBox="0 0 16 16" xmlns="http://www.w3.org/2000/svg"><title>small icons/school icon</title><path d="M14.54 13.107h-.645V6.053h.552c.255 0 .46-.2.46-.447V5.16c.017-.19-.094-.37-.275-.447L8.184 2.035c-.115-.047-.244-.047-.36 0L1.287 4.66c-.172.068-.285.23-.286.41v.536c0 .247.206.447.46.447h.645v7.054H1.46c-.254 0-.46.2-.46.447 0 .246.206.446.46.446h13.08c.254 0 .46-.2.46-.446 0-.247-.206-.447-.46-.447zm-4.33-6.965v6.965H8.46V6.142h1.75zm-2.67 6.965H5.79V6.142h1.75v6.965zm-2.672 0H3.026V6.142h1.842v6.965zm8.106 0h-1.842V6.142h1.842v6.965zM2.454 5.16l5.537-2.232L13.28 5.16H2.455z" fill="#A0734F" fill-rule="evenodd"/></svg>