<svg width="26" height="26" viewBox="0 0 26 26" xmlns="http://www.w3.org/2000/svg"><title>settings</title>
<path d="M23 14.23v-2.5l-2.975-.487c-.176-.704-.453-1.367-.817-1.973l1.734-2.472-1.767-1.767-2.44
 1.757c-.61-.37-1.276-.65-1.986-.826L14.23 3h-2.5l-.482 2.95c-.71.175-1.38.452-1.99.818L6.824 5.03
 5.057 6.796l1.71 2.448c-.37.613-.65 1.28-.828 1.997L3 11.73v2.5l2.937.52c.176.712.458 1.384.828
 1.997L5.03 19.173l1.767 1.768 2.45-1.716c.613.37 1.28.65 1.992.822L11.73 23h2.5l.527-2.96c.705-.18
 1.374-.462 1.98-.83l2.468 1.732 1.767-1.768-1.76-2.447c.364-.605.642-1.27.816-1.974L23 14.23zm-10
 2.104c-1.84 0-3.333-1.494-3.333-3.334S11.16 9.666 13 9.666 16.334 11.16 16.334 13c0 1.84-1.493
 3.334-3.334 3.334z" stroke="#9B9A98" stroke-width="1.2" fill="#DDDDDD" fill-rule="evenodd"/></svg>